<svg width="27" height="34" viewBox="0 0 27 34" fill="none" xmlns="http://www.w3.org/2000/svg">
<g clip-path="url(#clip0)">
<path d="M13.6901 0.0157537L13.548 0L0.0960693 1.40733V26.0129L13.548 34L27 26.0129V1.40733L13.6901 0.0157537ZM25.2407 25.0151L13.548 31.9573L1.8554 25.0151V14.9293L13.4989 21.8451L13.5182 23.0984L5.53018 18.3548L5.51965 19.5801L13.5375 24.3885L13.5568 25.675L5.5407 20.9174L5.53018 22.1427L13.548 26.9511L21.6431 22.1182V20.8929V16.909L25.2494 14.7595L25.2407 25.0151ZM25.2407 13.4519L22.0325 15.3319L20.5555 16.2071L13.5147 12.0201L13.5042 13.2454L19.5224 16.818L19.4698 16.8495L19.34 16.9247L18.484 17.4166L13.5147 14.4689L13.5042 15.6942L17.4263 18.0222L16.4966 18.6314L16.4756 18.6436L13.5147 16.902L13.5042 18.1273L15.4442 19.2615L13.4638 20.4483L1.88697 13.5762L13.4831 6.61831L25.2407 13.4519ZM25.2407 12.2266L13.4884 5.31075L1.8554 12.2196V2.9897L13.548 1.76442L25.2407 2.9897V12.2266Z" fill="#666666"/>
</g>
<defs>
<clipPath id="clip0">
<rect width="26.9039" height="34" fill="white" transform="translate(0.0960693)"/>
</clipPath>
</defs>
</svg>
